<?xml version="1.0" encoding="UTF-8" ?>
<svg version="1.1" width="384" height="384" xmlns="http://www.w3.org/2000/svg" shape-rendering="crispEdges">
<rect x="162" y="0" width="60" height="12" fill="#1C1618" />
<rect x="138" y="6" width="24" height="12" fill="#1C1618" />
<rect x="222" y="6" width="24" height="12" fill="#1C1618" />
<rect x="120" y="12" width="18" height="12" fill="#1C1618" />
<rect x="162" y="12" width="60" height="72" fill="#F0D472" />
<rect x="246" y="12" width="18" height="12" fill="#1C1618" />
<rect x="108" y="18" width="12" height="12" fill="#1C1618" />
<rect x="138" y="18" width="24" height="54" fill="#F0D472" />
<rect x="222" y="18" width="24" height="48" fill="#F0D472" />
<rect x="264" y="18" width="12" height="12" fill="#1C1618" />
<rect x="96" y="24" width="12" height="12" fill="#1C1618" />
<rect x="120" y="24" width="6" height="6" fill="#1C1618" />
<rect x="126" y="24" width="12" height="42" fill="#F0D472" />
<rect x="246" y="24" width="12" height="36" fill="#F0D472" />
<rect x="258" y="24" width="6" height="6" fill="#1C1618" />
<rect x="276" y="24" width="12" height="12" fill="#1C1618" />
<rect x="90" y="30" width="6" height="12" fill="#1C1618" />
<rect x="108" y="30" width="18" height="30" fill="#F0D472" />
<rect x="258" y="30" width="18" height="24" fill="#F0D472" />
<rect x="288" y="30" width="6" height="12" fill="#1C1618" />
<rect x="78" y="36" width="12" height="12" fill="#1C1618" />
<rect x="96" y="36" width="6" height="6" fill="#1C1618" />
<rect x="102" y="36" width="6" height="24" fill="#F0D472" />
<rect x="276" y="36" width="6" height="18" fill="#F0D472" />
<rect x="282" y="36" width="6" height="6" fill="#1C1618" />
<rect x="294" y="36" width="12" height="12" fill="#1C1618" />
<rect x="72" y="42" width="6" height="18" fill="#1C1618" />
<rect x="90" y="42" width="12" height="18" fill="#F0D472" />
<rect x="282" y="42" width="12" height="12" fill="#F0D472" />
<rect x="306" y="42" width="6" height="18" fill="#1C1618" />
<rect x="66" y="48" width="6" height="18" fill="#1C1618" />
<rect x="78" y="48" width="6" height="6" fill="#1C1618" />
<rect x="84" y="48" width="6" height="12" fill="#F0D472" />
<rect x="294" y="48" width="6" height="30" fill="#F0D472" />
<rect x="300" y="48" width="6" height="6" fill="#1C1618" />
<rect x="312" y="48" width="6" height="18" fill="#1C1618" />
<rect x="60" y="54" width="6" height="18" fill="#1C1618" />
<rect x="78" y="54" width="6" height="24" fill="#F0D472" />
<rect x="258" y="54" width="36" height="12" fill="#1C1618" />
<rect x="300" y="54" width="6" height="30" fill="#F0D472" />
<rect x="318" y="54" width="6" height="18" fill="#1C1618" />
<rect x="54" y="60" width="6" height="18" fill="#1C1618" />
<rect x="72" y="60" width="6" height="24" fill="#F0D472" />
<rect x="84" y="60" width="42" height="12" fill="#1C1618" />
<rect x="246" y="60" width="12" height="18" fill="#1C1618" />
<rect x="306" y="60" width="6" height="24" fill="#F0D472" />
<rect x="324" y="60" width="6" height="18" fill="#1C1618" />
<rect x="48" y="66" width="6" height="18" fill="#1C1618" />
<rect x="66" y="66" width="6" height="18" fill="#F0D472" />
<rect x="126" y="66" width="12" height="18" fill="#1C1618" />
<rect x="222" y="66" width="12" height="6" fill="#F0D472" />
<rect x="234" y="66" width="12" height="18" fill="#1C1618" />
<rect x="258" y="66" width="12" height="6" fill="#1C1618" />
<rect x="270" y="66" width="24" height="12" fill="#F0D472" />
<rect x="312" y="66" width="6" height="24" fill="#F0D472" />
<rect x="330" y="66" width="6" height="18" fill="#1C1618" />
<rect x="42" y="72" width="6" height="18" fill="#1C1618" />
<rect x="60" y="72" width="6" height="18" fill="#F0D472" />
<rect x="84" y="72" width="30" height="6" fill="#F0D472" />
<rect x="114" y="72" width="12" height="6" fill="#1C1618" />
<rect x="138" y="72" width="6" height="18" fill="#1C1618" />
<rect x="144" y="72" width="18" height="66" fill="#F0D472" />
<rect x="222" y="72" width="6" height="78" fill="#F0D472" />
<rect x="228" y="72" width="6" height="18" fill="#1C1618" />
<rect x="258" y="72" width="12" height="12" fill="#F0D472" />
<rect x="318" y="72" width="6" height="24" fill="#F0D472" />
<rect x="336" y="72" width="6" height="18" fill="#1C1618" />
<rect x="36" y="78" width="6" height="24" fill="#1C1618" />
<rect x="54" y="78" width="6" height="18" fill="#F0D472" />
<rect x="78" y="78" width="24" height="12" fill="#1C1618" />
<rect x="102" y="78" width="24" height="6" fill="#F0D472" />
<rect x="246" y="78" width="12" height="18" fill="#F0D472" />
<rect x="270" y="78" width="6" height="6" fill="#F0D472" />
<rect x="276" y="78" width="24" height="12" fill="#1C1618" />
<rect x="324" y="78" width="6" height="30" fill="#F0D472" />
<rect x="342" y="78" width="6" height="24" fill="#1C1618" />
<rect x="48" y="84" width="6" height="24" fill="#F0D472" />
<rect x="66" y="84" width="12" height="12" fill="#1C1618" />
<rect x="102" y="84" width="12" height="12" fill="#1C1618" />
<rect x="114" y="84" width="18" height="6" fill="#F0D472" />
<rect x="132" y="84" width="6" height="6" fill="#1C1618" />
<rect x="162" y="84" width="18" height="6" fill="#F0D472" />
<rect x="180" y="84" width="12" height="12" fill="#1C1618" />
<rect x="192" y="84" width="30" height="6" fill="#F0D472" />
<rect x="234" y="84" width="6" height="6" fill="#1C1618" />
<rect x="240" y="84" width="6" height="78" fill="#F0D472" />
<rect x="258" y="84" width="6" height="6" fill="#F0D472" />
<rect x="264" y="84" width="12" height="12" fill="#1C1618" />
<rect x="300" y="84" width="12" height="12" fill="#1C1618" />
<rect x="330" y="84" width="6" height="96" fill="#F0D472" />
<rect x="30" y="90" width="6" height="18" fill="#1C1618" />
<rect x="42" y="90" width="6" height="96" fill="#F0D472" />
<rect x="60" y="90" width="6" height="18" fill="#1C1618" />
<rect x="78" y="90" width="24" height="12" fill="#F9F5EF" />
<rect x="114" y="90" width="6" height="18" fill="#1C1618" />
<rect x="120" y="90" width="24" height="6" fill="#F0D472" />
<rect x="162" y="90" width="12" height="36" fill="#F0D472" />
<rect x="174" y="90" width="6" height="48" fill="#1C1618" />
<rect x="192" y="90" width="6" height="48" fill="#1C1618" />
<rect x="198" y="90" width="24" height="36" fill="#F0D472" />
<rect x="228" y="90" width="12" height="60" fill="#F0D472" />
<rect x="258" y="90" width="6" height="18" fill="#1C1618" />
<rect x="276" y="90" width="24" height="12" fill="#F9F5EF" />
<rect x="312" y="90" width="6" height="18" fill="#1C1618" />
<rect x="336" y="90" width="6" height="90" fill="#F0D472" />
<rect x="348" y="90" width="6" height="18" fill="#1C1618" />
<rect x="24" y="96" width="6" height="30" fill="#1C1618" />
<rect x="54" y="96" width="6" height="48" fill="#1C1618" />
<rect x="66" y="96" width="6" height="6" fill="#1C1618" />
<rect x="72" y="96" width="6" height="18" fill="#F9F5EF" />
<rect x="102" y="96" width="6" height="18" fill="#F9F5EF" />
<rect x="108" y="96" width="6" height="6" fill="#1C1618" />
<rect x="120" y="96" width="6" height="48" fill="#1C1618" />
<rect x="126" y="96" width="18" height="12" fill="#F0D472" />
<rect x="180" y="96" width="12" height="108" fill="#F0D472" />
<rect x="246" y="96" width="6" height="12" fill="#F0D472" />
<rect x="252" y="96" width="6" height="48" fill="#1C1618" />
<rect x="264" y="96" width="6" height="6" fill="#1C1618" />
<rect x="270" y="96" width="6" height="18" fill="#F9F5EF" />
<rect x="300" y="96" width="6" height="18" fill="#F9F5EF" />
<rect x="306" y="96" width="6" height="6" fill="#1C1618" />
<rect x="318" y="96" width="6" height="48" fill="#1C1618" />
<rect x="354" y="96" width="6" height="30" fill="#1C1618" />
<rect x="36" y="102" width="6" height="84" fill="#F0D472" />
<rect x="66" y="102" width="6" height="36" fill="#F9F5EF" />
<rect x="78" y="102" width="6" height="6" fill="#F9F5EF" />
<rect x="84" y="102" width="12" height="36" fill="#1C1618" />
<rect x="96" y="102" width="6" height="6" fill="#F9F5EF" />
<rect x="108" y="102" width="6" height="36" fill="#F9F5EF" />
<rect x="264" y="102" width="6" height="36" fill="#F9F5EF" />
<rect x="276" y="102" width="6" height="6" fill="#F9F5EF" />
<rect x="282" y="102" width="12" height="36" fill="#1C1618" />
<rect x="294" y="102" width="6" height="6" fill="#F9F5EF" />
<rect x="306" y="102" width="6" height="36" fill="#F9F5EF" />
<rect x="342" y="102" width="6" height="72" fill="#F0D472" />
<rect x="18" y="108" width="6" height="30" fill="#1C1618" />
<rect x="30" y="108" width="6" height="78" fill="#F0D472" />
<rect x="48" y="108" width="6" height="24" fill="#1C1618" />
<rect x="60" y="108" width="6" height="24" fill="#F9F5EF" />
<rect x="78" y="108" width="6" height="24" fill="#1C1618" />
<rect x="96" y="108" width="6" height="24" fill="#1C1618" />
<rect x="114" y="108" width="6" height="24" fill="#F9F5EF" />
<rect x="126" y="108" width="6" height="24" fill="#1C1618" />
<rect x="132" y="108" width="12" height="48" fill="#F0D472" />
<rect x="246" y="108" width="6" height="24" fill="#1C1618" />
<rect x="258" y="108" width="6" height="24" fill="#F9F5EF" />
<rect x="276" y="108" width="6" height="24" fill="#1C1618" />
<rect x="294" y="108" width="6" height="24" fill="#1C1618" />
<rect x="312" y="108" width="6" height="24" fill="#F9F5EF" />
<rect x="324" y="108" width="6" height="24" fill="#1C1618" />
<rect x="348" y="108" width="6" height="66" fill="#F0D472" />
<rect x="360" y="108" width="6" height="30" fill="#1C1618" />
<rect x="72" y="114" width="6" height="12" fill="#1C1618" />
<rect x="102" y="114" width="6" height="12" fill="#1C1618" />
<rect x="270" y="114" width="6" height="12" fill="#1C1618" />
<rect x="300" y="114" width="6" height="12" fill="#1C1618" />
<rect x="12" y="120" width="6" height="42" fill="#1C1618" />
<rect x="366" y="120" width="6" height="42" fill="#1C1618" />
<rect x="24" y="126" width="6" height="132" fill="#F0D472" />
<rect x="72" y="126" width="6" height="18" fill="#F9F5EF" />
<rect x="102" y="126" width="6" height="18" fill="#F9F5EF" />
<rect x="162" y="126" width="6" height="6" fill="#F0D472" />
<rect x="168" y="126" width="6" height="6" fill="#040303" />
<rect x="198" y="126" width="6" height="6" fill="#040303" />
<rect x="204" y="126" width="18" height="6" fill="#F0D472" />
<rect x="270" y="126" width="6" height="18" fill="#F9F5EF" />
<rect x="300" y="126" width="6" height="18" fill="#F9F5EF" />
<rect x="354" y="126" width="6" height="132" fill="#F0D472" />
<rect x="48" y="132" width="6" height="54" fill="#F0D472" />
<rect x="60" y="132" width="6" height="18" fill="#1C1618" />
<rect x="78" y="132" width="6" height="18" fill="#F9F5EF" />
<rect x="96" y="132" width="6" height="18" fill="#F9F5EF" />
<rect x="114" y="132" width="6" height="18" fill="#1C1618" />
<rect x="126" y="132" width="6" height="72" fill="#F0D472" />
<rect x="162" y="132" width="6" height="6" fill="#040303" />
<rect x="168" y="132" width="6" height="12" fill="#1C1618" />
<rect x="198" y="132" width="6" height="12" fill="#1C1618" />
<rect x="204" y="132" width="6" height="6" fill="#040303" />
<rect x="210" y="132" width="12" height="6" fill="#F0D472" />
<rect x="246" y="132" width="6" height="72" fill="#F0D472" />
<rect x="258" y="132" width="6" height="18" fill="#1C1618" />
<rect x="276" y="132" width="6" height="18" fill="#F9F5EF" />
<rect x="294" y="132" width="6" height="18" fill="#F9F5EF" />
<rect x="312" y="132" width="6" height="18" fill="#1C1618" />
<rect x="324" y="132" width="6" height="54" fill="#F0D472" />
<rect x="6" y="138" width="6" height="108" fill="#1C1618" />
<rect x="18" y="138" width="6" height="108" fill="#F0D472" />
<rect x="66" y="138" width="6" height="18" fill="#1C1618" />
<rect x="84" y="138" width="12" height="12" fill="#F9F5EF" />
<rect x="108" y="138" width="6" height="18" fill="#1C1618" />
<rect x="144" y="138" width="12" height="6" fill="#F0D472" />
<rect x="156" y="138" width="6" height="6" fill="#040303" />
<rect x="162" y="138" width="6" height="12" fill="#1C1618" />
<rect x="174" y="138" width="6" height="12" fill="#F0D472" />
<rect x="192" y="138" width="6" height="12" fill="#F0D472" />
<rect x="204" y="138" width="6" height="12" fill="#1C1618" />
<rect x="210" y="138" width="6" height="6" fill="#040303" />
<rect x="216" y="138" width="6" height="6" fill="#F0D472" />
<rect x="264" y="138" width="6" height="18" fill="#1C1618" />
<rect x="282" y="138" width="12" height="12" fill="#F9F5EF" />
<rect x="306" y="138" width="6" height="18" fill="#1C1618" />
<rect x="360" y="138" width="6" height="108" fill="#F0D472" />
<rect x="372" y="138" width="6" height="108" fill="#1C1618" />
<rect x="54" y="144" width="6" height="42" fill="#F0D472" />
<rect x="72" y="144" width="6" height="12" fill="#1C1618" />
<rect x="102" y="144" width="6" height="12" fill="#1C1618" />
<rect x="120" y="144" width="6" height="54" fill="#F0D472" />
<rect x="144" y="144" width="6" height="6" fill="#F0D472" />
<rect x="150" y="144" width="6" height="6" fill="#040303" />
<rect x="156" y="144" width="6" height="12" fill="#1C1618" />
<rect x="168" y="144" width="6" height="6" fill="#F0D472" />
<rect x="198" y="144" width="6" height="6" fill="#F0D472" />
<rect x="210" y="144" width="6" height="12" fill="#1C1618" />
<rect x="216" y="144" width="6" height="6" fill="#040303" />
<rect x="252" y="144" width="6" height="60" fill="#F0D472" />
<rect x="270" y="144" width="6" height="12" fill="#1C1618" />
<rect x="300" y="144" width="6" height="12" fill="#1C1618" />
<rect x="318" y="144" width="6" height="42" fill="#F0D472" />
<rect x="60" y="150" width="6" height="36" fill="#F0D472" />
<rect x="78" y="150" width="24" height="12" fill="#1C1618" />
<rect x="114" y="150" width="6" height="48" fill="#F0D472" />
<rect x="144" y="150" width="6" height="6" fill="#040303" />
<rect x="150" y="150" width="6" height="12" fill="#1C1618" />
<rect x="162" y="150" width="6" height="6" fill="#F0D472" />
<rect x="168" y="150" width="12" height="12" fill="#040303" />
<rect x="192" y="150" width="12" height="12" fill="#040303" />
<rect x="204" y="150" width="6" height="6" fill="#F0D472" />
<rect x="216" y="150" width="12" height="6" fill="#1C1618" />
<rect x="228" y="150" width="6" height="6" fill="#040303" />
<rect x="234" y="150" width="6" height="6" fill="#F0D472" />
<rect x="258" y="150" width="6" height="54" fill="#F0D472" />
<rect x="276" y="150" width="24" height="12" fill="#1C1618" />
<rect x="312" y="150" width="6" height="36" fill="#F0D472" />
<rect x="66" y="156" width="12" height="36" fill="#F0D472" />
<rect x="102" y="156" width="12" height="42" fill="#F0D472" />
<rect x="132" y="156" width="6" height="6" fill="#F0D472" />
<rect x="138" y="156" width="6" height="6" fill="#040303" />
<rect x="144" y="156" width="6" height="12" fill="#1C1618" />
<rect x="156" y="156" width="6" height="48" fill="#F0D472" />
<rect x="162" y="156" width="6" height="12" fill="#040303" />
<rect x="204" y="156" width="6" height="12" fill="#040303" />
<rect x="210" y="156" width="12" height="48" fill="#F0D472" />
<rect x="222" y="156" width="12" height="6" fill="#1C1618" />
<rect x="234" y="156" width="6" height="6" fill="#040303" />
<rect x="264" y="156" width="12" height="48" fill="#F0D472" />
<rect x="300" y="156" width="12" height="36" fill="#F0D472" />
<rect x="0" y="162" width="6" height="60" fill="#1C1618" />
<rect x="12" y="162" width="6" height="60" fill="#F0D472" />
<rect x="78" y="162" width="24" height="30" fill="#F0D472" />
<rect x="132" y="162" width="6" height="6" fill="#040303" />
<rect x="138" y="162" width="6" height="6" fill="#1C1618" />
<rect x="150" y="162" width="6" height="42" fill="#F0D472" />
<rect x="168" y="162" width="6" height="6" fill="#040303" />
<rect x="174" y="162" width="6" height="42" fill="#F0D472" />
<rect x="192" y="162" width="6" height="42" fill="#F0D472" />
<rect x="198" y="162" width="6" height="6" fill="#040303" />
<rect x="222" y="162" width="6" height="42" fill="#F0D472" />
<rect x="228" y="162" width="12" height="6" fill="#1C1618" />
<rect x="240" y="162" width="6" height="6" fill="#040303" />
<rect x="276" y="162" width="24" height="36" fill="#F0D472" />
<rect x="366" y="162" width="6" height="60" fill="#F0D472" />
<rect x="378" y="162" width="6" height="60" fill="#1C1618" />
<rect x="132" y="168" width="18" height="36" fill="#F0D472" />
<rect x="162" y="168" width="12" height="36" fill="#F0D472" />
<rect x="198" y="168" width="12" height="36" fill="#F0D472" />
<rect x="228" y="168" width="18" height="36" fill="#F0D472" />
<rect x="342" y="174" width="12" height="48" fill="#040303" />
<rect x="330" y="180" width="12" height="18" fill="#040303" />
<rect x="30" y="186" width="36" height="12" fill="#040303" />
<rect x="312" y="186" width="18" height="12" fill="#040303" />
<rect x="66" y="192" width="24" height="12" fill="#040303" />
<rect x="90" y="192" width="12" height="6" fill="#F0D472" />
<rect x="300" y="192" width="12" height="18" fill="#040303" />
<rect x="30" y="198" width="12" height="18" fill="#040303" />
<rect x="42" y="198" width="12" height="6" fill="#FFFACF" />
<rect x="54" y="198" width="12" height="6" fill="#040303" />
<rect x="90" y="198" width="36" height="12" fill="#040303" />
<rect x="276" y="198" width="24" height="12" fill="#040303" />
<rect x="312" y="198" width="12" height="6" fill="#040303" />
<rect x="324" y="198" width="18" height="12" fill="#FFFACF" />
<rect x="42" y="204" width="6" height="42" fill="#040303" />
<rect x="48" y="204" width="30" height="18" fill="#FFFACF" />
<rect x="78" y="204" width="12" height="84" fill="#040303" />
<rect x="126" y="204" width="150" height="12" fill="#040303" />
<rect x="312" y="204" width="6" height="78" fill="#040303" />
<rect x="318" y="204" width="6" height="48" fill="#FFFACF" />
<rect x="90" y="210" width="24" height="66" fill="#FFFACF" />
<rect x="114" y="210" width="12" height="6" fill="#040303" />
<rect x="276" y="210" width="12" height="102" fill="#040303" />
<rect x="288" y="210" width="18" height="60" fill="#FFFACF" />
<rect x="306" y="210" width="6" height="78" fill="#040303" />
<rect x="324" y="210" width="12" height="24" fill="#FFFACF" />
<rect x="336" y="210" width="6" height="42" fill="#040303" />
<rect x="30" y="216" width="6" height="60" fill="#F0D472" />
<rect x="36" y="216" width="6" height="18" fill="#040303" />
<rect x="114" y="216" width="18" height="84" fill="#FFFACF" />
<rect x="132" y="216" width="12" height="108" fill="#040303" />
<rect x="144" y="216" width="36" height="96" fill="#FFFACF" />
<rect x="180" y="216" width="12" height="114" fill="#040303" />
<rect x="192" y="216" width="36" height="102" fill="#FFFACF" />
<rect x="228" y="216" width="12" height="114" fill="#040303" />
<rect x="240" y="216" width="36" height="84" fill="#FFFACF" />
<rect x="12" y="222" width="6" height="42" fill="#1C1618" />
<rect x="48" y="222" width="6" height="30" fill="#040303" />
<rect x="54" y="222" width="24" height="12" fill="#FFFACF" />
<rect x="342" y="222" width="6" height="24" fill="#040303" />
<rect x="348" y="222" width="6" height="54" fill="#F0D472" />
<rect x="366" y="222" width="6" height="42" fill="#1C1618" />
<rect x="36" y="234" width="6" height="48" fill="#F0D472" />
<rect x="54" y="234" width="6" height="30" fill="#040303" />
<rect x="60" y="234" width="18" height="6" fill="#FFFACF" />
<rect x="324" y="234" width="6" height="6" fill="#FFFACF" />
<rect x="330" y="234" width="6" height="30" fill="#040303" />
<rect x="60" y="240" width="6" height="30" fill="#040303" />
<rect x="66" y="240" width="12" height="12" fill="#FFFACF" />
<rect x="324" y="240" width="6" height="30" fill="#040303" />
<rect x="18" y="246" width="6" height="30" fill="#1C1618" />
<rect x="42" y="246" width="6" height="48" fill="#F0D472" />
<rect x="342" y="246" width="6" height="36" fill="#F0D472" />
<rect x="360" y="246" width="6" height="30" fill="#1C1618" />
<rect x="48" y="252" width="6" height="48" fill="#F0D472" />
<rect x="66" y="252" width="6" height="24" fill="#040303" />
<rect x="72" y="252" width="6" height="6" fill="#FFFACF" />
<rect x="318" y="252" width="6" height="24" fill="#040303" />
<rect x="336" y="252" width="6" height="42" fill="#F0D472" />
<rect x="24" y="258" width="6" height="30" fill="#1C1618" />
<rect x="72" y="258" width="6" height="24" fill="#040303" />
<rect x="354" y="258" width="6" height="30" fill="#1C1618" />
<rect x="54" y="264" width="6" height="42" fill="#F0D472" />
<rect x="330" y="264" width="6" height="36" fill="#F0D472" />
<rect x="60" y="270" width="6" height="42" fill="#F0D472" />
<rect x="288" y="270" width="12" height="6" fill="#FFFACF" />
<rect x="300" y="270" width="6" height="24" fill="#040303" />
<rect x="324" y="270" width="6" height="36" fill="#F0D472" />
<rect x="30" y="276" width="6" height="18" fill="#1C1618" />
<rect x="66" y="276" width="6" height="42" fill="#F0D472" />
<rect x="90" y="276" width="6" height="24" fill="#040303" />
<rect x="96" y="276" width="18" height="6" fill="#FFFACF" />
<rect x="288" y="276" width="6" height="6" fill="#FFFACF" />
<rect x="294" y="276" width="6" height="24" fill="#040303" />
<rect x="318" y="276" width="6" height="36" fill="#F0D472" />
<rect x="348" y="276" width="6" height="18" fill="#1C1618" />
<rect x="36" y="282" width="6" height="24" fill="#1C1618" />
<rect x="72" y="282" width="6" height="42" fill="#F0D472" />
<rect x="96" y="282" width="6" height="24" fill="#040303" />
<rect x="102" y="282" width="12" height="6" fill="#FFFACF" />
<rect x="288" y="282" width="6" height="24" fill="#040303" />
<rect x="312" y="282" width="6" height="36" fill="#F0D472" />
<rect x="342" y="282" width="6" height="24" fill="#1C1618" />
<rect x="78" y="288" width="6" height="42" fill="#F0D472" />
<rect x="84" y="288" width="6" height="6" fill="#040303" />
<rect x="102" y="288" width="6" height="24" fill="#040303" />
<rect x="108" y="288" width="6" height="6" fill="#FFFACF" />
<rect x="306" y="288" width="6" height="36" fill="#F0D472" />
<rect x="42" y="294" width="6" height="18" fill="#1C1618" />
<rect x="84" y="294" width="6" height="42" fill="#F0D472" />
<rect x="108" y="294" width="6" height="18" fill="#040303" />
<rect x="300" y="294" width="6" height="36" fill="#F0D472" />
<rect x="336" y="294" width="6" height="18" fill="#1C1618" />
<rect x="48" y="300" width="6" height="18" fill="#1C1618" />
<rect x="90" y="300" width="6" height="42" fill="#F0D472" />
<rect x="114" y="300" width="12" height="18" fill="#040303" />
<rect x="126" y="300" width="6" height="6" fill="#FFFACF" />
<rect x="240" y="300" width="24" height="6" fill="#FFFACF" />
<rect x="264" y="300" width="12" height="18" fill="#040303" />
<rect x="294" y="300" width="6" height="36" fill="#F0D472" />
<rect x="330" y="300" width="6" height="18" fill="#1C1618" />
<rect x="54" y="306" width="6" height="18" fill="#1C1618" />
<rect x="96" y="306" width="6" height="36" fill="#F0D472" />
<rect x="126" y="306" width="6" height="18" fill="#040303" />
<rect x="240" y="306" width="12" height="6" fill="#FFFACF" />
<rect x="252" y="306" width="12" height="18" fill="#040303" />
<rect x="288" y="306" width="6" height="36" fill="#F0D472" />
<rect x="324" y="306" width="6" height="18" fill="#1C1618" />
<rect x="60" y="312" width="6" height="18" fill="#1C1618" />
<rect x="102" y="312" width="12" height="36" fill="#F0D472" />
<rect x="144" y="312" width="18" height="12" fill="#040303" />
<rect x="162" y="312" width="18" height="6" fill="#FFFACF" />
<rect x="240" y="312" width="12" height="18" fill="#040303" />
<rect x="276" y="312" width="12" height="30" fill="#F0D472" />
<rect x="318" y="312" width="6" height="18" fill="#1C1618" />
<rect x="66" y="318" width="6" height="18" fill="#1C1618" />
<rect x="114" y="318" width="12" height="36" fill="#F0D472" />
<rect x="162" y="318" width="18" height="12" fill="#040303" />
<rect x="192" y="318" width="36" height="12" fill="#040303" />
<rect x="264" y="318" width="12" height="36" fill="#F0D472" />
<rect x="312" y="318" width="6" height="18" fill="#1C1618" />
<rect x="72" y="324" width="6" height="18" fill="#1C1618" />
<rect x="126" y="324" width="24" height="36" fill="#F0D472" />
<rect x="150" y="324" width="12" height="6" fill="#040303" />
<rect x="252" y="324" width="12" height="30" fill="#F0D472" />
<rect x="306" y="324" width="6" height="18" fill="#1C1618" />
<rect x="78" y="330" width="6" height="18" fill="#1C1618" />
<rect x="150" y="330" width="102" height="30" fill="#F0D472" />
<rect x="300" y="330" width="6" height="18" fill="#1C1618" />
<rect x="84" y="336" width="6" height="12" fill="#1C1618" />
<rect x="294" y="336" width="6" height="12" fill="#1C1618" />
<rect x="90" y="342" width="12" height="12" fill="#1C1618" />
<rect x="276" y="342" width="6" height="6" fill="#F0D472" />
<rect x="282" y="342" width="12" height="12" fill="#1C1618" />
<rect x="102" y="348" width="6" height="12" fill="#1C1618" />
<rect x="108" y="348" width="6" height="6" fill="#F0D472" />
<rect x="276" y="348" width="6" height="12" fill="#1C1618" />
<rect x="96" y="354" width="6" height="6" fill="#1C1618" />
<rect x="108" y="354" width="18" height="12" fill="#1C1618" />
<rect x="252" y="354" width="6" height="6" fill="#F0D472" />
<rect x="258" y="354" width="18" height="12" fill="#1C1618" />
<rect x="282" y="354" width="6" height="6" fill="#1C1618" />
<rect x="126" y="360" width="12" height="12" fill="#1C1618" />
<rect x="138" y="360" width="108" height="6" fill="#F0D472" />
<rect x="246" y="360" width="12" height="12" fill="#1C1618" />
<rect x="120" y="366" width="6" height="6" fill="#1C1618" />
<rect x="138" y="366" width="24" height="12" fill="#1C1618" />
<rect x="162" y="366" width="60" height="6" fill="#F0D472" />
<rect x="222" y="366" width="24" height="12" fill="#1C1618" />
<rect x="258" y="366" width="6" height="6" fill="#1C1618" />
<rect x="162" y="372" width="60" height="12" fill="#1C1618" />
</svg>